<svg xmlns="http://www.w3.org/2000/svg" viewBox="0 0 500 500"><path d="M401.11 63.17s-54.24-40.07-123.57-18S180 126.85 140.73 168.78c-20.58 22-51.34 31.11-75.92 48.41-78.61 55.33-64.95 171-3 212 53.66 35.53 120 36.47 205.78 4.53S414.86 382.19 467 299.57s1-181.7-65.89-236.4z" fill="#b9e7c5"/><path d="M401.11 63.17s-54.24-40.07-123.57-18S180 126.85 140.73 168.78c-20.58 22-51.34 31.11-75.92 48.41-78.61 55.33-64.95 171-3 212 53.66 35.53 120 36.47 205.78 4.53S414.86 382.19 467 299.57s1-181.7-65.89-236.4z" fill="#fff" opacity=".8"/><g opacity=".3"><path fill="#fff" stroke="#000" stroke-linejoin="round" d="M76.61 143.44H29.03V84.09h40.48l7.1 5.92v53.43z"/><path fill="#fff" stroke="#000" stroke-linejoin="round" d="M69.51 84.09v6.02h7.1l-7.1-6.02z"/><path d="M19.78 89.08H55.3v12.97H19.78z"/><path fill="none" stroke="#000" stroke-miterlimit="10" d="M34.29 105.76H72.6"/><path fill="none" stroke="#000" stroke-miterlimit="10" d="M34.29 112.87H72.6"/><path fill="none" stroke="#000" stroke-miterlimit="10" d="M34.29 119.97H72.6"/><path fill="none" stroke="#000" stroke-miterlimit="10" d="M34.29 127.08H72.6"/><path fill="none" stroke="#000" stroke-miterlimit="10" d="M34.29 134.18H72.6"/><path d="M30.62 100.2v-8.41H28.9v-1h4.47v1h-1.72v8.41z" fill="#fff"/><path d="M36.41 96.17l-1.57 4h-1l1.89-4.82L34 90.84h1.09l1.44 3.75L38 90.84h1l-1.75 4.54 1.87 4.82H38z" fill="#fff"/><path d="M41.25 100.2v-8.41h-1.73v-1H44v1h-1.73v8.41z" fill="#fff"/></g><g opacity=".3"><path fill="#fff" stroke="#000" stroke-linejoin="round" d="M463.85 274h-47.58v-59.36h40.47l7.11 5.92V274z"/><path fill="#fff" stroke="#000" stroke-linejoin="round" d="M456.74 214.64v6.02h7.11l-7.11-6.02z"/><path d="M407.01 219.64h35.52v12.97h-35.52z"/><path fill="none" stroke="#000" stroke-miterlimit="10" d="M421.53 236.32h38.3"/><path fill="none" stroke="#000" stroke-miterlimit="10" d="M421.53 243.42h38.3"/><path fill="none" stroke="#000" stroke-miterlimit="10" d="M421.53 250.52h38.3"/><path fill="none" stroke="#000" stroke-miterlimit="10" d="M421.53 257.63h38.3"/><path fill="none" stroke="#000" stroke-miterlimit="10" d="M421.53 264.73h38.3"/><path d="M417.86 230.76v-8.41h-1.73v-.95h4.48v.95h-1.72v8.41z" fill="#fff"/><path d="M423.65 226.72l-1.57 4h-1l1.89-4.83-1.77-4.53h1.08l1.45 3.74 1.46-3.74h1l-1.75 4.53 1.87 4.83h-1.11z" fill="#fff"/><path d="M428.48 230.76v-8.41h-1.72v-.95h4.48v.95h-1.73v8.41z" fill="#fff"/></g><g opacity=".3"><path fill="#fff" stroke="#000" stroke-linejoin="round" d="M308.31 375.39h-47.58v-59.36h40.48l7.1 5.92v53.44z"/><path fill="#fff" stroke="#000" stroke-linejoin="round" d="M301.21 316.03v6.03h7.1l-7.1-6.03z"/><path d="M251.48 321.03H287V334h-35.52z"/><path fill="none" stroke="#000" stroke-miterlimit="10" d="M266 337.71h38.3"/><path fill="none" stroke="#000" stroke-miterlimit="10" d="M266 344.81h38.3"/><path fill="none" stroke="#000" stroke-miterlimit="10" d="M266 351.91h38.3"/><path fill="none" stroke="#000" stroke-miterlimit="10" d="M266 359.02h38.3"/><path fill="none" stroke="#000" stroke-miterlimit="10" d="M266 366.12h38.3"/><path d="M262.32 332.15v-8.41h-1.72v-.95h4.48v.95h-1.73v8.41z" fill="#fff"/><path d="M268.11 328.11l-1.57 4h-1l1.88-4.83-1.76-4.53h1.08l1.44 3.74 1.46-3.74h1l-1.76 4.53 1.88 4.83h-1.1z" fill="#fff"/><path d="M273 332.15v-8.41h-1.73v-.95h4.48v.95H274v8.41z" fill="#fff"/></g><g opacity=".3"><path fill="#fff" stroke="#000" stroke-linejoin="round" d="M96.32 287.45H32.24v-79.94h54.52l9.56 7.97v71.97z"/><path fill="#fff" stroke="#000" stroke-linejoin="round" d="M86.76 207.51v8.11h9.56l-9.56-8.11z"/><path d="M19.78 214.24h47.84v17.47H19.78z"/><path fill="none" stroke="#000" stroke-miterlimit="10" d="M39.33 236.7h51.59"/><path fill="none" stroke="#000" stroke-miterlimit="10" d="M39.33 246.27h51.59"/><path fill="none" stroke="#000" stroke-miterlimit="10" d="M39.33 255.83h51.59"/><path fill="none" stroke="#000" stroke-miterlimit="10" d="M39.33 265.4h51.59"/><path fill="none" stroke="#000" stroke-miterlimit="10" d="M39.33 274.97h51.59"/><path d="M35.32 216.61c2 0 2.83 1.17 2.83 3.08v1.51c0 2-.94 3-2.94 3H34v5h-1.4v-12.6zm-.11 6.39c1 0 1.55-.49 1.55-1.69v-1.68c0-1.15-.41-1.73-1.44-1.73H34v5.1z" fill="#fff"/><path d="M42.25 216.61c2 0 2.86 1.18 2.86 3.13v6.35c0 1.93-.9 3.12-2.86 3.12h-3v-12.6zm0 11.32c1 0 1.5-.63 1.5-1.78v-6.48c0-1.16-.49-1.79-1.51-1.79H40.7v10.05z" fill="#fff"/><path d="M50.73 222.48v1.27h-2.9v5.46h-1.4v-12.6h5v1.27h-3.6v4.6z" fill="#fff"/></g><g opacity=".3"><path fill="#fff" stroke="#000" stroke-linejoin="round" d="M70 396.8H38.42v-39.39h26.86l4.72 3.93v35.46z"/><path fill="#fff" stroke="#000" stroke-linejoin="round" d="M65.28 357.41v4H70l-4.72-4z"/><path d="M32.28 360.72h23.57v8.61H32.28z"/><path fill="none" stroke="#000" stroke-miterlimit="10" d="M41.92 371.79h25.42"/><path fill="none" stroke="#000" stroke-miterlimit="10" d="M41.92 376.51h25.42"/><path fill="none" stroke="#000" stroke-miterlimit="10" d="M41.92 381.22h25.42"/><path fill="none" stroke="#000" stroke-miterlimit="10" d="M41.92 385.94h25.42"/><path fill="none" stroke="#000" stroke-miterlimit="10" d="M41.92 390.65h25.42"/><path d="M39.94 361.89c1 0 1.39.58 1.39 1.52v.74c0 1-.46 1.5-1.45 1.5h-.61v2.45h-.69v-6.21zm-.06 3.11c.52 0 .77-.24.77-.83v-.83c0-.56-.21-.85-.71-.85h-.67V365z" fill="#fff"/><path d="M43.35 361.89c1 0 1.41.59 1.41 1.55v3.13c0 .95-.44 1.53-1.41 1.53H41.9v-6.21zm0 5.58c.5 0 .74-.31.74-.88v-3.19c0-.57-.24-.88-.75-.88h-.74v5z" fill="#fff"/><path d="M47.53 364.78v.63H46.1v2.69h-.69v-6.21h2.47v.63H46.1v2.26z" fill="#fff"/></g><g opacity=".3"><path fill="#fff" stroke="#000" stroke-linejoin="round" d="M471.47 104.39h-31.58v-39.4h26.86l4.72 3.93v35.47z"/><path fill="#fff" stroke="#000" stroke-linejoin="round" d="M466.75 64.99v4h4.72l-4.72-4z"/><path d="M433.75 68.31h23.57v8.61h-23.57z"/><path fill="none" stroke="#000" stroke-miterlimit="10" d="M443.38 79.38h25.42"/><path fill="none" stroke="#000" stroke-miterlimit="10" d="M443.38 84.09h25.42"/><path fill="none" stroke="#000" stroke-miterlimit="10" d="M443.38 88.81h25.42"/><path fill="none" stroke="#000" stroke-miterlimit="10" d="M443.38 93.52h25.42"/><path fill="none" stroke="#000" stroke-miterlimit="10" d="M443.38 98.24h25.42"/><path d="M441.41 69.48c1 0 1.39.57 1.39 1.52v.74c0 1-.46 1.5-1.45 1.5h-.61v2.45h-.69v-6.21zm-.06 3.14c.52 0 .77-.24.77-.84V71c0-.57-.21-.85-.71-.85h-.67v2.51z" fill="#fff"/><path d="M444.82 69.48c1 0 1.41.58 1.41 1.54v3.13c0 .95-.44 1.54-1.41 1.54h-1.45v-6.21zm0 5.58c.5 0 .74-.31.74-.88V71c0-.57-.24-.88-.75-.88h-.74v5z" fill="#fff"/><path d="M449 72.37V73h-1.43v2.69h-.69v-6.21h2.47v.63h-1.78v2.26z" fill="#fff"/></g><g><path fill="#263238" stroke="#263238" stroke-miterlimit="10" d="M81.02 49.59h334.46V311H81.02z"/><path fill="#b9e7c5" d="M91.87 39.36h335.47v262.03H91.87z"/><path fill="#fff" stroke="#263238" stroke-linecap="round" stroke-linejoin="round" d="M91.87 39.36h335.47v262.03H91.87z"/><path fill="#fff" stroke="#263238" stroke-linecap="round" stroke-linejoin="round" d="M101 76.49h71v45h-71z"/><path fill="none" stroke="#263238" stroke-miterlimit="10" d="M120.5 96h30"/><path fill="none" stroke="#263238" stroke-miterlimit="10" d="M113 103.5h49.5"/><path fill="#fff" stroke="#263238" stroke-linecap="round" stroke-linejoin="round" d="M101 129.99h71v45h-71z"/><path fill="none" stroke="#263238" stroke-miterlimit="10" d="M108.39 140.67h24.9"/><path fill="none" stroke="#263238" stroke-miterlimit="10" d="M108.39 146.63h24.9"/><path fill="none" stroke="#263238" stroke-miterlimit="10" d="M108.39 152.59h24.9"/><path fill="none" stroke="#263238" stroke-miterlimit="10" d="M108.39 158.55h24.9"/><path fill="none" stroke="#263238" stroke-miterlimit="10" d="M108.39 164.51h24.9"/><path fill="none" stroke="#263238" stroke-miterlimit="10" d="M139.22 140.67h24.9"/><path fill="none" stroke="#263238" stroke-miterlimit="10" d="M139.22 146.63h24.9"/><path fill="none" stroke="#263238" stroke-miterlimit="10" d="M139.22 152.59h24.9"/><path fill="none" stroke="#263238" stroke-miterlimit="10" d="M139.22 158.55h24.9"/><path fill="none" stroke="#263238" stroke-miterlimit="10" d="M139.22 164.51h24.9"/><path fill="#fff" stroke="#263238" stroke-linecap="round" stroke-linejoin="round" d="M101 183.49h71v45h-71z"/><path fill="none" stroke="#263238" stroke-miterlimit="10" d="M108.39 194.17h24.9"/><path fill="none" stroke="#263238" stroke-miterlimit="10" d="M108.39 200.13h24.9"/><path fill="none" stroke="#263238" stroke-miterlimit="10" d="M108.39 206.09h24.9"/><path fill="none" stroke="#263238" stroke-miterlimit="10" d="M108.39 212.05h24.9"/><path fill="none" stroke="#263238" stroke-miterlimit="10" d="M108.39 218.01h24.9"/><path fill="none" stroke="#263238" stroke-miterlimit="10" d="M139.22 194.17h24.9"/><path fill="none" stroke="#263238" stroke-miterlimit="10" d="M139.22 200.13h24.9"/><path fill="none" stroke="#263238" stroke-miterlimit="10" d="M139.22 206.09h24.9"/><path fill="none" stroke="#263238" stroke-miterlimit="10" d="M139.22 212.05h24.9"/><path fill="none" stroke="#263238" stroke-miterlimit="10" d="M139.22 218.01h24.9"/><path fill="#fff" stroke="#263238" stroke-linecap="round" stroke-linejoin="round" d="M101 236.99h71v45h-71z"/><path fill="none" stroke="#263238" stroke-miterlimit="10" d="M108.39 247.67h24.9"/><path fill="none" stroke="#263238" stroke-miterlimit="10" d="M108.39 253.63h24.9"/><path fill="none" stroke="#263238" stroke-miterlimit="10" d="M108.39 259.59h24.9"/><path fill="none" stroke="#263238" stroke-miterlimit="10" d="M108.39 265.55h24.9"/><path fill="none" stroke="#263238" stroke-miterlimit="10" d="M108.39 271.51h24.9"/><path fill="none" stroke="#263238" stroke-miterlimit="10" d="M139.22 247.67h24.9"/><path fill="none" stroke="#263238" stroke-miterlimit="10" d="M139.22 253.63h24.9"/><path fill="none" stroke="#263238" stroke-miterlimit="10" d="M139.22 259.59h24.9"/><path fill="none" stroke="#263238" stroke-miterlimit="10" d="M139.22 265.55h24.9"/><path fill="none" stroke="#263238" stroke-miterlimit="10" d="M139.22 271.51h24.9"/><path fill="#b8b8b8" stroke="#263238" stroke-linecap="round" stroke-linejoin="round" d="M182 39.36h245.33v262.03H182z"/><path fill="#fff" stroke="#263238" stroke-linecap="round" stroke-linejoin="round" d="M189 89h222v151H189z"/><path fill="none" stroke="#263238" stroke-miterlimit="10" d="M240.58 148.94h121.84"/><path fill="none" stroke="#263238" stroke-miterlimit="10" d="M224.02 162.18h154.96"/><path fill="#dbdbdb" stroke="#263238" stroke-miterlimit="10" d="M418.66 39.36h8.67v262.03h-8.67z"/><path fill="#878787" d="M418.66 120.54h8.67v70.8h-8.67z"/><path fill="#b9e7c5" stroke="#263238" stroke-linecap="round" stroke-linejoin="round" d="M91.87 39.36h335.47v17.02H91.87z"/><path fill="#fff" d="M113.93 42.26h215.68v9.6H113.93z"/><path fill="none" stroke="#263238" stroke-miterlimit="10" d="M410.99 62.4h-16.65"/><path fill="none" stroke="#263238" stroke-miterlimit="10" d="M410.99 67.53h-16.65"/><path fill="none" stroke="#263238" stroke-miterlimit="10" d="M410.99 72.65h-16.65"/></g><g stroke="#263238" stroke-linecap="round" stroke-linejoin="round"><path fill="none" d="M431 408.44l4.05-11.58"/><path fill="none" d="M431.29 377.17v43.14"/><path d="M424.65 399.55s-6-6.55-12-5.46-8.74 8.2-8.74 12.57 6 18.57 6 18.57 4.37-4.91 14.21-12 10.37-14.23.53-13.68z" fill="#b9e7c5"/><path d="M424.65 399.55a30.06 30.06 0 0 0-12 12.57" fill="none"/><path d="M434.45 391.86s5-5.39 9.91-4.48 7.19 6.77 7.18 10.37-5 15.3-5 15.3a78.5 78.5 0 0 0-11.67-9.94c-8.09-5.87-8.53-11.72-.42-11.25z" fill="#b9e7c5"/><path d="M434.45 391.86a24.67 24.67 0 0 1 9.87 10.38" fill="none"/><path fill="none" d="M430.42 384.7l7.53-11.01"/><path d="M429.16 381.51s-.12-7.32-4.43-9.93-9.86.27-12.25 3-6.48 14.71-6.48 14.71 5.38-.65 15.33.35 14.19-3.09 7.83-8.13z" fill="#b9e7c5"/><path d="M429.16 381.51a24.76 24.76 0 0 0-14.28 1.18" fill="none"/><path d="M435.63 371.69s.09-5.39 3.26-7.31 7.27.2 9 2.18 4.75 10.85 4.75 10.85a57.82 57.82 0 0 0-11.28.26c-7.3.73-10.36-2.27-5.73-5.98z" fill="#b9e7c5"/><path d="M435.63 371.69a18.21 18.21 0 0 1 10.51.87" fill="none"/><path fill="#fff" d="M449.69 416.61h-38.81l3.93 40.4h30.95l3.93-40.4z"/><path d="M439.4 434.21a1.74 1.74 0 1 0 1.74-1.74 1.73 1.73 0 0 0-1.74 1.74z" fill="#263238"/><path d="M433 434.21a1.74 1.74 0 1 0 1.74-1.74 1.73 1.73 0 0 0-1.74 1.74z" fill="#263238"/><path fill="#263238" d="M412.17 429.86h36.23l.17-1.73H412l.17 1.73z"/><path fill="#263238" d="M446.85 445.79l.73-7.53h-34.59l.73 7.53h33.13z"/><path d="M445.77 434.21a1.73 1.73 0 0 0 1.74 1.73h.3l.32-3.32a1.8 1.8 0 0 0-.62-.12 1.74 1.74 0 0 0-1.74 1.71z" fill="#263238"/><path d="M426.66 434.21a1.74 1.74 0 1 0 1.74-1.74 1.73 1.73 0 0 0-1.74 1.74z" fill="#263238"/><path d="M413.92 434.21a1.74 1.74 0 1 0 1.74-1.74 1.73 1.73 0 0 0-1.74 1.74z" fill="#263238"/><path d="M420.29 434.21a1.74 1.74 0 1 0 1.74-1.74 1.73 1.73 0 0 0-1.74 1.74z" fill="#263238"/></g><g><path d="M166.27 457.11c4.8-5.92 13.37-16.36 16.32-19.1a98.07 98.07 0 0 0 8-8.64s-5.07 9.83 3.57 17.58 34.28 1.79 39.94-2.38 6.26-14.9 1.2-30.7-12.23-45-11.93-55.14-6.26-38.75-9.24-46.5-15.2-13.41-27.72-16.09-46.2 11.32-46.2 11.32l-6.85 2.68s-28 15.5-35.47 21.76-3.88 23.55-5.66 40.24-1.79 36.07-1.79 36.07-17.29 15.2-29.81 32.48c-6 8.32-9.49 13.39-11.47 16.42z" fill="#b9e7c5" stroke="#263238" stroke-miterlimit="10"/><path d="M227.74 424.82s-10-2.35-20.48 4.68-7.62 17.56 1.75 19.9 21.66 2.34 28.1-7.61-4.68-17.56-9.37-16.97z" fill="#fff" stroke="#263238" stroke-miterlimit="10"/><path d="M230.23 424.73a22 22 0 0 0-16 3.66c-8.22 5.48-5.94 13.71 1.37 15.54s16.91 1.83 21.94-5.94-3.66-13.71-7.31-13.26z" fill="#fff" stroke="#263238" stroke-miterlimit="10"/><path d="M207.09 358.07c.33-5.44.54-9.15.54-9.48" fill="none" stroke="#263238" stroke-miterlimit="10"/><path d="M190.64 429.37s10.73-10.43 12.51-22.36c1.11-7.35 2.55-27.38 3.49-41.95" fill="none" stroke="#263238" stroke-miterlimit="10"/><path d="M219.77 378.27c-2.7 8.68-7.7 21.71-15.42 30.53" fill="none" stroke="#263238" stroke-miterlimit="10"/><path d="M222.23 369.16s-.42 2-1.31 5.2" fill="none" stroke="#263238" stroke-miterlimit="10"/><path d="M221.29 403.15a73.22 73.22 0 0 1-18.43 15.19" fill="none" stroke="#263238" stroke-miterlimit="10"/><path d="M226.4 396.58a52 52 0 0 1-3.55 4.74" fill="none" stroke="#263238" stroke-miterlimit="10"/><path d="M236.84 421.92a49.29 49.29 0 0 0-30.41.59c-16.69 5.67-14.9 18.48-13.41 20.57" fill="none" stroke="#263238" stroke-miterlimit="10"/><path d="M191.6 214.21s0-3.51-4.83-11-29.42-4.39-37.76 3.95 3.51 18.88-1.76 25-22.83 3.07-28.54 14.05 8.78 16.24 11.86 20.19-5.27 5.27-4.39 9.22 14.48 4.39 14.48 4.39-8.78 2.64-4.39 6.15a32.7 32.7 0 0 0 21.08 6.59c8.78-.44 6.58-17.57 5.71-30.3s10.53-26.78 23.71-25.47 27.22 16.25 25 22.84 3.51-1.32 15.37-8.79 6.59-22.83 4-25.9-11.41-3.95-13.17-9.66-5.71-11.41-13.17-11.41-5.74 9.71-13.2 10.15z" fill="#263238" stroke="#263238" stroke-miterlimit="10"/><path d="M154 293.15s-5.66 1.49-8 4.48-12 8.37-12.59 12.51 3 25.64 10.13 34.28 10.73 9.24 10.73 9.24 2.09-8.34 3.58-8.94 15.2 8 15.2 8 2.38-14 3.88-14 6.25 4.77 6.25 4.77 1.79-11.93.6-21.17-8.94-20.56-14.6-24.44-10.18-7.41-15.18-4.73z" fill="#fff" stroke="#263238" stroke-miterlimit="10"/><path d="M156.91 281.83l-11 26.34s2.83 12.27 6.55 20.16c5.07 10.73 17.6 15.84 17.6 15.84a40.6 40.6 0 0 1 3.95-18 97.94 97.94 0 0 1 8.78-14.49s-19.73-19.31-25.88-29.85z" fill="#fff" stroke="#263238" stroke-miterlimit="10"/><path d="M159.75 291.82s5.05 28.87 12.27 37.89l6.85-13-18-28.15z" fill="#263238" stroke="#263238" stroke-miterlimit="10"/><path d="M155.46 377.51s17.59-45.91 20-48.59 7.75-7.45 10.14-10.73 8.94-11.62 11.33-11.62 8 2.08 10.73 2.68 4.47 1.49 4.76 6-3.57 4.77-3.57 4.77l-1.49-1.79s-10.73 16.1-14 18.18a27.85 27.85 0 0 1-6.26 3l-14.31 53.36z" fill="#fff" stroke="#263238" stroke-miterlimit="10"/><path d="M217.5 244.39s4.17 3.48 1.39 15.28-3.47 17.71-3.47 24.66-2.08 16.67-8 22.92-13.19 15.28-21.87 14.93c-13.75-.55-20.49-19.45-25-28.13S155 273.56 155 268.7s.69-16.32 6.94-25 23.27-12.15 30.56-11.11 16.32 2.08 25 11.8z" fill="#fff" stroke="#263238" stroke-miterlimit="10"/><path d="M158.12 275.65s1.39-4.86 7.64-7.64 10.07-7.64 8-12.16-1-9 8-11.46 11.46 6.6 20.14 5.21 11.11-4.86 15.62-2.78 2.43 8 2.43 8 5.56-10.07-5.2-21.53-36.81-15.63-54.87-2.43-7.64 44.1-7.64 44.1 1.02 1.38 5.88.69z" fill="#263238" stroke="#263238" stroke-miterlimit="10"/><path fill="none" stroke="#263238" stroke-miterlimit="10" d="M201.53 281.55l-1.04 20.14-7.3-2.78"/><path d="M196 309s-6.94 1-10.07-3.82" fill="none" stroke="#263238" stroke-miterlimit="10"/><path d="M188.31 281.34c-.32 2-1.43 3.46-2.47 3.29s-1.62-1.92-1.3-3.91 1.43-3.46 2.47-3.29 1.62 1.92 1.3 3.91z" fill="#263238"/><path d="M210.56 281.9c-.32 2-1.43 3.46-2.47 3.29s-1.63-1.92-1.3-3.9 1.43-3.47 2.47-3.3 1.62 1.92 1.3 3.91z" fill="#263238"/><path d="M179.44 272.27s7.47-6.51 13.49-1.45" fill="none" stroke="#263238" stroke-linecap="round" stroke-miterlimit="10" stroke-width="2"/><path d="M205.7 270.82s5.06-4.33 9.4-.24" fill="none" stroke="#263238" stroke-linecap="round" stroke-miterlimit="10" stroke-width="2"/><path d="M197.75 276.61s-10.6-1.69-27 1c0 0-1.44 11.08 6.27 15.9s15.18.24 17.1-2.41c3.88-5.28 3.63-14.49 3.63-14.49z" fill="none" stroke="#263238" stroke-miterlimit="10" stroke-width="2"/><path d="M222.08 275.09s-7.58-1.61-19.3.92c0 0-1 10.6 4.48 15.2s10.86.23 12.24-2.3c2.72-5.01 2.58-13.82 2.58-13.82z" fill="none" stroke="#263238" stroke-miterlimit="10" stroke-width="2"/><path d="M197.75 276.61s1.14-3.12 5-.6" fill="none" stroke="#263238" stroke-miterlimit="10" stroke-width="2"/><path fill="none" stroke="#263238" stroke-miterlimit="10" stroke-width="2" d="M154.62 271.06l16.14 6.51"/><path d="M159.51 277.38s-2.43-14.23-9-7.29-.69 13.89 2.43 17 7 0 7 0" fill="#fff" stroke="#263238" stroke-miterlimit="10"/><path d="M133.49 347.54a79.37 79.37 0 0 1 8.56 25.46c2.09 14.31 1.79 17 1.79 17l10.43-12.51s17 11.92 19.67 15.79 3 5.07 3 5.07 0 23.25-9.84 37.26-14.61 14-24.14 14-21.76-8.95-28.32-23.85-11.93-36.63-13.12-38.76-5.07-14-5.07-14" fill="#b9e7c5" stroke="#263238" stroke-miterlimit="10"/><path d="M129.58 407.49c-1.09 1.28-2 2.35-2.73 3.1" fill="none" stroke="#263238" stroke-miterlimit="10"/><path d="M143.84 390s-5.57 7-10.57 13.05" fill="none" stroke="#263238" stroke-miterlimit="10"/><path d="M145.33 388.53a77.87 77.87 0 0 1 18.48 8.05c10.13 6 11 12.52 14 10.14s5.36-9.84 2.38-14-12.22-14-18.77-17-9.24-1.2-11.33 3.28-6.85 6.85-4.76 9.53z" fill="#fff" stroke="#263238" stroke-miterlimit="10"/><path d="M145 412.93a34.35 34.35 0 0 0 1.28 8.39" fill="none" stroke="#263238" stroke-miterlimit="10"/><path d="M145.33 388.53s-.71 10-.56 19.31" fill="none" stroke="#263238" stroke-miterlimit="10"/><path d="M155.46 393.6s2.09 11.63 4.48 16.69" fill="none" stroke="#263238" stroke-miterlimit="10"/><path d="M226.11 422.51s-10.14 17.89-8.65 20 34.58 0 34.58 0l1.78-7.15s6.86 2.68 12.23 2.68 1.19-1.49-.6-3.28-12.22-8.34-13.12-8.94-18.18-5.1-26.22-3.31z" fill="#fff" stroke="#263238" stroke-miterlimit="10"/><path d="M247.7 420.45s4.79-1.44 6.07 1.6.64 16 .16 19.32-2.71 3.19-3.67 0-3.2-20.44-3.2-20.44z" fill="#fff" stroke="#263238" stroke-miterlimit="10"/><path d="M237.64 421.89s7.19-4.95 9.27-2.4 4 22.68 4.63 24.12-2.72 2.55-4 1.11-4.95-8.78-6.06-11.49-3.84-11.34-3.84-11.34z" fill="#fff" stroke="#263238" stroke-miterlimit="10"/><path d="M223.43 427.32s4-7.35 7.35-9.42 7 1.75 8.78 4.63 3.19 10.38 4 14.05 3 7.82 1.76 8.3-6.23-3.67-7.67-5.9-4.95-10.86-4.95-10.86" fill="#fff" stroke="#263238" stroke-miterlimit="10"/><path d="M230 441.21s-5.75-5.59-7.67-7.35-4.63-2.55-6.54-.47-2.88 4.63 0 7.34S225.51 447 230 447s3.67-2.24 2.55-3.51a14.51 14.51 0 0 0-2.55-2.28z" fill="#fff" stroke="#263238" stroke-miterlimit="10"/></g><g stroke="#263238" stroke-linecap="round" stroke-linejoin="round"><path fill="#b8b8b8" d="M382.64 457.01H173.09v-5.99h209.55z"/><path fill="#263238" d="M246.65 457.01h-73.56v-5.99h73.56z"/><path d="M240.72 451h136.06l7.86-90.49a7.05 7.05 0 0 0-7.13-7.81H257.06a8.69 8.69 0 0 0-8.48 7.81z" fill="#263238"/><path d="M243.33 451h136.06l7.86-90.49a7.05 7.05 0 0 0-7.13-7.81H259.67a8.69 8.69 0 0 0-8.48 7.81z" fill="#b8b8b8"/><path d="M312.27 399a9.49 9.49 0 0 1 9.27-8.53 7.7 7.7 0 0 1 7.79 8.53 9.49 9.49 0 0 1-9.27 8.53 7.7 7.7 0 0 1-7.79-8.53z" fill="#263238"/></g><g><path fill="none" stroke="#263238" stroke-miterlimit="10" d="M486.03 457.01H17.42"/></g></svg>